<svg version="1.1" id="Layer_1" xmlns="http://www.w3.org/2000/svg" xmlns:xlink="http://www.w3.org/1999/xlink" x="0px" y="0px"
	 width="100%" viewBox="0 0 2000 2001" enable-background="new 0 0 2000 2001" xml:space="preserve">
<path fill="#FF6600" opacity="1.000000" stroke="none" 
	d="
M1026.000000,2002.000000 
	C1009.645752,2002.000000 993.291565,2002.000000 976.239502,2001.633057 
	C955.560974,2000.178101 935.557129,1999.398438 915.606934,1997.903076 
	C900.038513,1996.736084 884.497803,1994.976318 869.015503,1992.941650 
	C850.973450,1990.570557 832.877502,1988.278076 815.038391,1984.766113 
	C782.467224,1978.353638 749.932983,1971.548462 718.350891,1961.098633 
	C689.007324,1951.389404 659.526367,1941.978149 630.651367,1931.001099 
	C599.219238,1919.051880 568.566101,1905.123901 538.983215,1888.998413 
	C524.137146,1880.905762 508.868805,1873.496826 494.519470,1864.604004 
	C470.144348,1849.498047 445.781403,1834.252197 422.461609,1817.597290 
	C398.964172,1800.815552 376.465546,1782.587524 354.060059,1764.341431 
	C338.964722,1752.048462 324.271515,1739.156616 310.336334,1725.570679 
	C292.862732,1708.534912 276.118835,1690.728394 259.498566,1672.846924 
	C247.597794,1660.042969 235.853745,1647.013428 225.045914,1633.292114 
	C208.297592,1612.028809 191.812119,1590.506226 176.295395,1568.337524 
	C154.282486,1536.887817 134.082123,1504.181030 116.726990,1469.942261 
	C101.367363,1439.640259 86.562073,1408.945801 73.662979,1377.541016 
	C61.809891,1348.682617 52.411045,1318.781738 42.681046,1289.094360 
	C30.329908,1251.409668 21.860495,1212.704102 15.211320,1173.660278 
	C11.053823,1149.247437 7.932832,1124.632812 5.173955,1100.015991 
	C3.354861,1083.784668 3.024249,1067.387329 1.967170,1051.068115 
	C1.878356,1049.696899 1.333161,1048.355347 0.999997,1047.000000 
	C1.000000,1016.979126 1.000000,986.958191 1.366888,956.239746 
	C2.820985,939.731689 3.746454,923.907898 5.044537,908.114685 
	C6.162970,894.507324 7.161046,880.853027 9.187051,867.365906 
	C12.347940,846.323669 16.138374,825.369263 20.013039,804.442627 
	C26.421490,769.831299 35.327194,735.834595 45.893269,702.266846 
	C55.631264,671.329895 66.664566,640.882141 79.403694,611.034546 
	C92.236885,580.966492 106.267761,551.518127 121.964264,522.826782 
	C139.847275,490.138702 159.047943,458.254364 180.766556,428.010986 
	C196.745636,405.759949 213.636322,384.125641 230.889908,362.839996 
	C244.489548,346.062225 258.683838,329.679840 273.640717,314.108002 
	C300.062500,286.599823 327.161835,259.732574 356.845337,235.645889 
	C369.742859,225.180176 382.139099,214.022110 395.598389,204.339691 
	C419.531342,187.122665 443.702942,170.169067 468.524628,154.276596 
	C489.768097,140.675140 511.679962,127.992805 533.976624,116.189323 
	C571.115662,96.528542 609.061951,78.415627 648.866028,64.692108 
	C678.851746,54.353741 708.849487,43.854042 739.369690,35.311493 
	C778.778198,24.281088 818.854980,15.842710 859.578186,10.944004 
	C878.653442,8.649391 897.688354,5.936489 916.809326,4.132250 
	C930.793701,2.812691 944.889771,2.684509 958.932739,1.960890 
	C959.968933,1.907497 960.978210,1.332516 962.000000,1.000010 
	C987.687561,1.000000 1013.375183,1.000000 1039.760376,1.366946 
	C1057.435303,2.821822 1074.420776,3.797139 1091.386963,5.037589 
	C1102.551880,5.853890 1113.735229,6.701336 1124.827026,8.166067 
	C1139.604248,10.117501 1154.353516,12.390830 1169.018677,15.054931 
	C1188.813599,18.650896 1208.619751,22.295473 1228.238403,26.728239 
	C1268.646484,35.858345 1308.433716,47.320591 1347.093872,62.228123 
	C1373.512939,72.415443 1399.740845,83.232826 1425.471191,95.039345 
	C1461.161621,111.416069 1495.841919,129.883850 1528.931763,151.095673 
	C1549.341675,164.179184 1569.510010,177.699173 1589.158081,191.893585 
	C1606.581665,204.480972 1623.414062,217.934631 1639.996582,231.624695 
	C1656.016479,244.850388 1671.983887,258.245972 1686.904419,272.673462 
	C1712.544312,297.465851 1738.060791,322.441895 1760.677612,350.149689 
	C1771.914185,363.915619 1783.965698,377.068329 1794.489136,391.352600 
	C1811.299316,414.170441 1827.609619,437.391632 1843.242676,461.029938 
	C1855.074829,478.920959 1866.058594,497.431427 1876.435181,516.210327 
	C1886.992920,535.317200 1896.688477,554.925720 1906.122559,574.620544 
	C1914.476196,592.059814 1922.889160,609.571838 1929.605103,627.671692 
	C1940.925415,658.179993 1951.460083,689.008057 1961.335815,720.016785 
	C1972.614990,755.432251 1980.411987,791.785767 1986.772339,828.368286 
	C1991.013062,852.759094 1994.087646,877.381104 1996.821655,901.995483 
	C1998.661011,918.555359 1998.976074,935.283691 2000.032715,951.932922 
	C2000.119751,953.303589 2000.666748,954.645020 2001.000000,956.000000 
	C2001.000000,986.020935 2001.000000,1016.041809 2000.633057,1046.760254 
	C1999.849121,1054.390625 1999.553589,1061.333130 1998.990234,1068.253906 
	C1997.733887,1083.688477 1996.472290,1099.124634 1994.966431,1114.536133 
	C1993.815796,1126.311035 1992.797119,1138.135742 1990.814941,1149.784302 
	C1987.246460,1170.754883 1983.017456,1191.613281 1979.032715,1212.512573 
	C1972.802612,1245.188354 1963.650513,1277.113892 1953.535034,1308.740479 
	C1942.504517,1343.227905 1930.196533,1377.318604 1914.369751,1409.917236 
	C1898.738281,1442.113770 1882.906372,1474.283447 1865.404907,1505.479126 
	C1851.718140,1529.875244 1836.096191,1553.294434 1819.951294,1576.171875 
	C1803.968750,1598.819336 1786.726562,1620.631592 1769.153931,1642.086914 
	C1754.307983,1660.213257 1738.722290,1677.807617 1722.498779,1694.710815 
	C1706.528198,1711.350708 1689.555176,1727.054077 1672.619629,1742.733521 
	C1660.647461,1753.817993 1648.366211,1764.634888 1635.579102,1774.757812 
	C1614.474976,1791.464844 1593.317871,1808.177612 1571.333374,1823.682983 
	C1540.238892,1845.613281 1507.863525,1865.665894 1474.104858,1883.274658 
	C1452.275635,1894.660889 1429.993896,1905.208984 1407.680420,1915.630737 
	C1376.491089,1930.197754 1344.287964,1942.273560 1311.495605,1952.682495 
	C1291.860107,1958.914917 1272.103394,1964.888794 1252.132812,1969.910767 
	C1228.511475,1975.850830 1204.657104,1980.912476 1180.793579,1985.819458 
	C1167.962891,1988.457642 1154.927490,1990.165039 1141.936401,1991.941406 
	C1130.050903,1993.566772 1118.111084,1994.820068 1106.176392,1996.053223 
	C1092.424683,1997.473999 1078.672729,1999.006348 1064.882812,1999.905640 
	C1052.804688,2000.693359 1040.673096,2000.652954 1028.567505,2001.047363 
	C1027.702271,2001.075439 1026.855469,2001.669312 1026.000000,2002.000000 
M580.685852,869.850464 
	C585.290100,900.108704 594.279724,929.156006 605.434631,957.540405 
	C614.960388,981.779236 621.982727,1006.633667 623.754944,1032.637817 
	C625.388000,1056.599854 623.961121,1080.515991 617.283386,1103.736206 
	C611.404541,1124.178345 603.861206,1144.171387 598.637756,1164.764771 
	C592.490295,1189.001099 587.548279,1213.578979 583.060547,1238.187012 
	C580.399414,1252.778931 579.101990,1267.683350 578.208679,1282.508423 
	C577.726196,1290.515869 579.098999,1298.688843 580.139221,1306.721924 
	C581.842651,1319.874878 585.031677,1332.676147 590.655212,1345.844849 
	C600.061340,1328.120605 609.031189,1311.218506 618.000977,1294.316406 
	C618.989136,1297.366333 618.948853,1300.111084 618.720703,1302.840088 
	C617.507690,1317.355225 615.840942,1331.846436 615.128235,1346.385010 
	C614.523376,1358.723145 615.064392,1371.114624 614.983398,1383.481812 
	C614.884338,1398.603760 616.798401,1413.491211 619.976379,1428.237427 
	C624.020752,1447.003662 631.428162,1464.334717 642.402649,1480.102417 
	C659.076050,1504.057739 681.110107,1522.587524 703.550903,1540.762695 
	C720.740723,1554.684692 738.689026,1567.919922 754.341614,1583.436035 
	C782.825073,1611.670654 791.556580,1645.587524 777.839172,1684.197266 
	C776.940491,1686.726685 775.981323,1689.234497 774.563843,1693.068115 
	C799.147095,1676.260010 822.457092,1660.322632 846.130432,1644.136719 
	C848.236450,1647.278687 850.140442,1649.969604 851.892761,1652.755981 
	C871.171631,1683.411255 892.253296,1712.709473 917.116699,1739.139282 
	C933.020325,1756.044800 949.628662,1772.122803 970.301331,1783.312378 
	C995.494507,1796.948364 1020.111938,1796.299561 1043.292236,1779.203491 
	C1052.597900,1772.340454 1061.227661,1764.263306 1069.009644,1755.690063 
	C1089.809692,1732.775269 1105.823730,1706.379028 1122.094238,1680.212158 
	C1129.464478,1668.359009 1136.879028,1656.533325 1144.507080,1644.321045 
	C1170.089844,1658.447876 1195.233643,1672.332275 1221.125854,1686.629883 
	C1220.752563,1684.551758 1220.471313,1683.317505 1220.315552,1682.067749 
	C1218.865112,1670.431396 1216.472290,1658.813965 1216.213379,1647.149658 
	C1215.756226,1626.565552 1221.977295,1607.759644 1237.213745,1593.387329 
	C1245.478882,1585.590820 1255.068970,1578.945435 1264.812378,1573.014648 
	C1300.887939,1551.055542 1330.124512,1522.702759 1349.537354,1484.845337 
	C1367.267578,1450.269165 1374.634033,1413.122070 1375.670654,1374.656250 
	C1376.083740,1359.325684 1374.896484,1343.926758 1373.928345,1328.591187 
	C1372.937012,1312.887939 1371.340332,1297.222290 1369.961060,1281.544434 
	C1369.745239,1279.091431 1369.277100,1276.660767 1368.907959,1274.096191 
	C1370.152100,1274.096191 1370.509155,1274.011597 1370.802246,1274.112671 
	C1371.585083,1274.382324 1372.339600,1274.733643 1373.106567,1275.049438 
	C1391.945679,1282.802002 1404.448242,1296.422119 1411.064209,1315.655151 
	C1413.186768,1321.825684 1415.839966,1327.813599 1418.250488,1333.885132 
	C1420.976807,1313.046997 1423.300537,1292.389282 1423.749512,1271.690918 
	C1424.123047,1254.467041 1423.174072,1237.096802 1421.256836,1219.965454 
	C1417.340210,1184.969849 1407.625244,1151.164917 1398.441650,1117.273193 
	C1388.025269,1078.831665 1375.942993,1040.709106 1372.611084,1000.739685 
	C1371.518066,987.628540 1370.499268,974.110107 1372.483276,961.246155 
	C1374.905273,945.541565 1379.751709,930.065369 1384.923096,914.960510 
	C1395.779785,883.250793 1403.055176,851.261169 1400.192017,817.348206 
	C1398.672241,799.347046 1394.295532,782.327087 1387.674805,765.709595 
	C1379.131958,744.267395 1374.556030,722.352234 1377.960815,699.060730 
	C1379.700806,687.156372 1380.052612,675.048035 1381.004639,663.029785 
	C1382.019897,650.215576 1383.498169,637.413452 1383.877319,624.579590 
	C1384.376343,607.684204 1384.278076,590.757141 1383.920288,573.854614 
	C1383.587524,558.136414 1383.402222,542.340027 1381.652100,526.746338 
	C1379.558716,508.094177 1376.548706,489.478271 1372.678833,471.111420 
	C1369.086182,454.059998 1364.336182,437.214386 1355.428589,421.877563 
	C1330.054810,378.189453 1297.804688,340.405304 1258.485474,308.700012 
	C1255.599854,306.373169 1255.696899,304.592102 1257.041992,301.638672 
	C1264.556641,285.139862 1272.037354,268.622650 1279.259644,251.994507 
	C1284.920898,238.960037 1287.349365,225.102814 1289.296387,210.266571 
	C1287.273926,211.377945 1285.986694,212.017105 1284.766724,212.765671 
	C1246.845093,236.034058 1205.835815,247.143036 1161.348022,242.629059 
	C1147.040283,241.177307 1132.624146,238.385513 1118.892578,234.148636 
	C1086.747314,224.230240 1054.000122,217.788895 1020.512329,216.335419 
	C997.802246,215.349747 974.917053,215.845673 952.233887,217.439987 
	C923.673645,219.447418 895.532288,225.038452 868.374268,234.235214 
	C850.150879,240.406372 831.270203,246.117996 814.798523,255.678864 
	C777.829468,277.137177 753.423279,309.702667 740.096802,350.369690 
	C738.955322,353.852997 737.105286,354.967346 733.725281,355.046417 
	C727.242065,355.198090 720.669556,355.026459 714.301453,356.040436 
	C672.560364,362.686615 641.405396,385.001678 621.097900,421.711945 
	C606.679138,447.777039 597.836365,476.041718 593.401245,505.529114 
	C591.457886,518.449646 589.231628,531.508606 589.225952,544.505676 
	C589.208862,583.590759 590.470886,622.674561 590.743652,661.762329 
	C590.927002,688.040161 591.037659,714.361694 589.732788,740.591614 
	C588.874207,757.851379 585.465515,774.986694 583.148987,792.171021 
	C581.135498,807.107239 578.084839,821.985168 577.328369,836.981567 
	C576.794189,847.570679 579.328491,858.314514 580.685852,869.850464 
z"/>
<path fill="#EEEEEE" opacity="1.000000" stroke="none" 
	d="
M580.589355,869.419922 
	C579.328491,858.314514 576.794189,847.570679 577.328369,836.981567 
	C578.084839,821.985168 581.135498,807.107239 583.148987,792.171021 
	C585.465515,774.986694 588.874207,757.851379 589.732788,740.591614 
	C591.037659,714.361694 590.927002,688.040161 590.743652,661.762329 
	C590.470886,622.674561 589.208862,583.590759 589.225952,544.505676 
	C589.231628,531.508606 591.457886,518.449646 593.401245,505.529114 
	C597.836365,476.041718 606.679138,447.777039 621.097900,421.711945 
	C641.405396,385.001678 672.560364,362.686615 714.301453,356.040436 
	C720.669556,355.026459 727.242065,355.198090 733.725281,355.046417 
	C737.105286,354.967346 738.955322,353.852997 740.096802,350.369690 
	C753.423279,309.702667 777.829468,277.137177 814.798523,255.678864 
	C831.270203,246.117996 850.150879,240.406372 868.374268,234.235214 
	C895.532288,225.038452 923.673645,219.447418 952.233887,217.439987 
	C974.917053,215.845673 997.802246,215.349747 1020.512329,216.335419 
	C1054.000122,217.788895 1086.747314,224.230240 1118.892578,234.148636 
	C1132.624146,238.385513 1147.040283,241.177307 1161.348022,242.629059 
	C1205.835815,247.143036 1246.845093,236.034058 1284.766724,212.765671 
	C1285.986694,212.017105 1287.273926,211.377945 1289.296387,210.266571 
	C1287.349365,225.102814 1284.920898,238.960037 1279.259644,251.994507 
	C1272.037354,268.622650 1264.556641,285.139862 1257.041992,301.638672 
	C1255.696899,304.592102 1255.599854,306.373169 1258.485474,308.700012 
	C1297.804688,340.405304 1330.054810,378.189453 1355.428589,421.877563 
	C1364.336182,437.214386 1369.086182,454.059998 1372.678833,471.111420 
	C1376.548706,489.478271 1379.558716,508.094177 1381.652100,526.746338 
	C1383.402222,542.340027 1383.587524,558.136414 1383.920288,573.854614 
	C1384.278076,590.757141 1384.376343,607.684204 1383.877319,624.579590 
	C1383.498169,637.413452 1382.019897,650.215576 1381.004639,663.029785 
	C1380.052612,675.048035 1379.700806,687.156372 1377.960815,699.060730 
	C1374.556030,722.352234 1379.131958,744.267395 1387.674805,765.709595 
	C1394.295532,782.327087 1398.672241,799.347046 1400.192017,817.348206 
	C1403.055176,851.261169 1395.779785,883.250793 1384.923096,914.960510 
	C1379.751709,930.065369 1374.905273,945.541565 1372.483276,961.246155 
	C1370.499268,974.110107 1371.518066,987.628540 1372.611084,1000.739685 
	C1375.942993,1040.709106 1388.025269,1078.831665 1398.441650,1117.273193 
	C1407.625244,1151.164917 1417.340210,1184.969849 1421.256836,1219.965454 
	C1423.174072,1237.096802 1424.123047,1254.467041 1423.749512,1271.690918 
	C1423.300537,1292.389282 1420.976807,1313.046997 1418.250488,1333.885132 
	C1415.839966,1327.813599 1413.186768,1321.825684 1411.064209,1315.655151 
	C1404.448242,1296.422119 1391.945679,1282.802002 1373.106567,1275.049438 
	C1372.339600,1274.733643 1371.585083,1274.382324 1370.802246,1274.112671 
	C1370.509155,1274.011597 1370.152100,1274.096191 1368.907959,1274.096191 
	C1369.277100,1276.660767 1369.745239,1279.091431 1369.961060,1281.544434 
	C1371.340332,1297.222290 1372.937012,1312.887939 1373.928345,1328.591187 
	C1374.896484,1343.926758 1376.083740,1359.325684 1375.670654,1374.656250 
	C1374.634033,1413.122070 1367.267578,1450.269165 1349.537354,1484.845337 
	C1330.124512,1522.702759 1300.887939,1551.055542 1264.812378,1573.014648 
	C1255.068970,1578.945435 1245.478882,1585.590820 1237.213745,1593.387329 
	C1221.977295,1607.759644 1215.756226,1626.565552 1216.213379,1647.149658 
	C1216.472290,1658.813965 1218.865112,1670.431396 1220.315552,1682.067749 
	C1220.471313,1683.317505 1220.752563,1684.551758 1221.125854,1686.629883 
	C1195.233643,1672.332275 1170.089844,1658.447876 1144.507080,1644.321045 
	C1136.879028,1656.533325 1129.464478,1668.359009 1122.094238,1680.212158 
	C1105.823730,1706.379028 1089.809692,1732.775269 1069.009644,1755.690063 
	C1061.227661,1764.263306 1052.597900,1772.340454 1043.292236,1779.203491 
	C1020.111938,1796.299561 995.494507,1796.948364 970.301331,1783.312378 
	C949.628662,1772.122803 933.020325,1756.044800 917.116699,1739.139282 
	C892.253296,1712.709473 871.171631,1683.411255 851.892761,1652.755981 
	C850.140442,1649.969604 848.236450,1647.278687 846.130432,1644.136719 
	C822.457092,1660.322632 799.147095,1676.260010 774.563843,1693.068115 
	C775.981323,1689.234497 776.940491,1686.726685 777.839172,1684.197266 
	C791.556580,1645.587524 782.825073,1611.670654 754.341614,1583.436035 
	C738.689026,1567.919922 720.740723,1554.684692 703.550903,1540.762695 
	C681.110107,1522.587524 659.076050,1504.057739 642.402649,1480.102417 
	C631.428162,1464.334717 624.020752,1447.003662 619.976379,1428.237427 
	C616.798401,1413.491211 614.884338,1398.603760 614.983398,1383.481812 
	C615.064392,1371.114624 614.523376,1358.723145 615.128235,1346.385010 
	C615.840942,1331.846436 617.507690,1317.355225 618.720703,1302.840088 
	C618.948853,1300.111084 618.989136,1297.366333 618.000977,1294.316406 
	C609.031189,1311.218506 600.061340,1328.120605 590.655212,1345.844849 
	C585.031677,1332.676147 581.842651,1319.874878 580.139221,1306.721924 
	C579.098999,1298.688843 577.726196,1290.515869 578.208679,1282.508423 
	C579.101990,1267.683350 580.399414,1252.778931 583.060547,1238.187012 
	C587.548279,1213.578979 592.490295,1189.001099 598.637756,1164.764771 
	C603.861206,1144.171387 611.404541,1124.178345 617.283386,1103.736206 
	C623.961121,1080.515991 625.388000,1056.599854 623.754944,1032.637817 
	C621.982727,1006.633667 614.960388,981.779236 605.434631,957.540405 
	C594.279724,929.156006 585.290100,900.108704 580.589355,869.419922 
M1278.787354,670.757690 
	C1272.149414,661.846680 1266.307495,652.176270 1258.693848,644.196289 
	C1246.124756,631.022583 1231.041504,622.948669 1211.673462,625.827820 
	C1199.906494,627.577087 1187.852417,627.482239 1176.131836,629.440002 
	C1145.144653,634.615845 1114.415894,634.052734 1083.999023,626.276428 
	C1071.791748,623.155579 1059.986572,618.494812 1047.894775,614.882141 
	C1027.666138,608.838562 1007.197510,603.558472 987.118164,597.065491 
	C963.399597,589.395813 940.202881,580.078491 916.387939,572.749084 
	C885.942383,563.379028 854.784363,560.427490 823.301392,567.494202 
	C788.369324,575.335144 761.273682,595.103516 740.412598,623.636536 
	C716.786743,655.951233 703.324036,692.563416 695.947876,731.653076 
	C693.573608,744.235229 690.706970,756.724121 688.112488,769.265381 
	C687.122375,774.050903 684.554504,776.938354 679.779236,778.784668 
	C674.248474,780.923035 668.835205,783.768127 663.978882,787.173462 
	C648.491821,798.033081 643.600830,814.077148 645.304199,831.794922 
	C646.756897,846.904907 650.380249,861.810181 653.123047,876.791443 
	C657.194458,899.029846 663.220276,920.578491 675.961731,939.664673 
	C693.152283,965.415405 717.836853,977.152771 748.220825,977.968079 
	C767.039978,978.473022 785.232422,974.628540 803.151367,969.340515 
	C835.103394,959.911133 867.491150,952.437256 900.931030,952.274780 
	C915.552246,952.203735 930.327576,954.320068 944.782410,956.865723 
	C963.642639,960.187195 980.906067,968.203735 997.163940,978.275146 
	C1001.404297,980.901917 1005.552612,985.968567 1009.663025,985.886719 
	C1014.011108,985.800171 1018.290894,980.949829 1022.553589,978.109924 
	C1050.995605,959.160706 1082.485596,951.650940 1116.148560,955.425903 
	C1130.362793,957.019958 1144.377075,961.532776 1158.127808,965.848267 
	C1176.658569,971.663940 1194.423096,980.209839 1213.944092,982.420105 
	C1233.965332,984.687134 1253.148071,981.915039 1268.320435,967.244202 
	C1276.170288,959.653809 1283.496582,951.199768 1289.546509,942.127075 
	C1313.170410,906.700073 1323.187866,867.068909 1323.996094,824.837158 
	C1324.385498,804.490479 1315.028931,790.238403 1296.756836,781.694092 
	C1293.014526,779.944153 1289.091553,778.580872 1285.087158,776.973267 
	C1285.087158,776.334045 1284.978760,775.668823 1285.102783,775.050171 
	C1289.247681,754.374023 1291.747681,733.603699 1290.071777,712.429688 
	C1288.932007,698.029724 1285.670044,684.321411 1278.787354,670.757690 
M1158.455566,1169.943848 
	C1168.228760,1158.821167 1175.085938,1146.181030 1178.963867,1131.352783 
	C1177.707031,1131.493652 1177.072876,1131.554321 1176.441650,1131.636841 
	C1151.683228,1134.873291 1126.868896,1136.550781 1101.944336,1133.853027 
	C1081.458130,1131.635498 1061.351807,1127.455811 1043.206543,1117.387939 
	C1031.385620,1110.829102 1020.479248,1102.621704 1009.777222,1095.558105 
	C999.583130,1102.387817 989.193359,1110.531982 977.759521,1116.758911 
	C955.022766,1129.141479 930.058899,1133.802124 904.397461,1134.774902 
	C893.086670,1135.203613 881.724670,1135.433105 870.432495,1134.850220 
	C860.734497,1134.349609 851.102783,1132.564819 840.992432,1131.291138 
	C841.267517,1132.755005 841.352844,1133.697510 841.624451,1134.582886 
	C849.276978,1159.525146 864.891479,1178.072388 887.381531,1190.895508 
	C905.671509,1201.323975 925.536255,1207.092041 946.412476,1209.013428 
	C964.816711,1210.707275 983.270935,1212.403687 1001.730408,1212.789307 
	C1018.068359,1213.130859 1034.475708,1212.090820 1050.793335,1210.872070 
	C1064.508057,1209.847778 1078.302124,1208.517822 1091.769897,1205.852051 
	C1117.274292,1200.803833 1140.109741,1190.125610 1158.455566,1169.943848 
z"/>
<path fill="#FF6600" opacity="1.000000" stroke="none" 
	d="
M1278.929199,671.102173 
	C1285.670044,684.321411 1288.932007,698.029724 1290.071777,712.429688 
	C1291.747681,733.603699 1289.247681,754.374023 1285.102783,775.050171 
	C1284.978760,775.668823 1285.087158,776.334045 1285.087158,776.973267 
	C1289.091553,778.580872 1293.014526,779.944153 1296.756836,781.694092 
	C1315.028931,790.238403 1324.385498,804.490479 1323.996094,824.837158 
	C1323.187866,867.068909 1313.170410,906.700073 1289.546509,942.127075 
	C1283.496582,951.199768 1276.170288,959.653809 1268.320435,967.244202 
	C1253.148071,981.915039 1233.965332,984.687134 1213.944092,982.420105 
	C1194.423096,980.209839 1176.658569,971.663940 1158.127808,965.848267 
	C1144.377075,961.532776 1130.362793,957.019958 1116.148560,955.425903 
	C1082.485596,951.650940 1050.995605,959.160706 1022.553589,978.109924 
	C1018.290894,980.949829 1014.011108,985.800171 1009.663025,985.886719 
	C1005.552612,985.968567 1001.404297,980.901917 997.163940,978.275146 
	C980.906067,968.203735 963.642639,960.187195 944.782410,956.865723 
	C930.327576,954.320068 915.552246,952.203735 900.931030,952.274780 
	C867.491150,952.437256 835.103394,959.911133 803.151367,969.340515 
	C785.232422,974.628540 767.039978,978.473022 748.220825,977.968079 
	C717.836853,977.152771 693.152283,965.415405 675.961731,939.664673 
	C663.220276,920.578491 657.194458,899.029846 653.123047,876.791443 
	C650.380249,861.810181 646.756897,846.904907 645.304199,831.794922 
	C643.600830,814.077148 648.491821,798.033081 663.978882,787.173462 
	C668.835205,783.768127 674.248474,780.923035 679.779236,778.784668 
	C684.554504,776.938354 687.122375,774.050903 688.112488,769.265381 
	C690.706970,756.724121 693.573608,744.235229 695.947876,731.653076 
	C703.324036,692.563416 716.786743,655.951233 740.412598,623.636536 
	C761.273682,595.103516 788.369324,575.335144 823.301392,567.494202 
	C854.784363,560.427490 885.942383,563.379028 916.387939,572.749084 
	C940.202881,580.078491 963.399597,589.395813 987.118164,597.065491 
	C1007.197510,603.558472 1027.666138,608.838562 1047.894775,614.882141 
	C1059.986572,618.494812 1071.791748,623.155579 1083.999023,626.276428 
	C1114.415894,634.052734 1145.144653,634.615845 1176.131836,629.440002 
	C1187.852417,627.482239 1199.906494,627.577087 1211.673462,625.827820 
	C1231.041504,622.948669 1246.124756,631.022583 1258.693848,644.196289 
	C1266.307495,652.176270 1272.149414,661.846680 1278.929199,671.102173 
z"/>
<path fill="#FF6601" opacity="1.000000" stroke="none" 
	d="
M1158.208374,1170.199829 
	C1140.109741,1190.125610 1117.274292,1200.803833 1091.769897,1205.852051 
	C1078.302124,1208.517822 1064.508057,1209.847778 1050.793335,1210.872070 
	C1034.475708,1212.090820 1018.068359,1213.130859 1001.730408,1212.789307 
	C983.270935,1212.403687 964.816711,1210.707275 946.412476,1209.013428 
	C925.536255,1207.092041 905.671509,1201.323975 887.381531,1190.895508 
	C864.891479,1178.072388 849.276978,1159.525146 841.624451,1134.582886 
	C841.352844,1133.697510 841.267517,1132.755005 840.992432,1131.291138 
	C851.102783,1132.564819 860.734497,1134.349609 870.432495,1134.850220 
	C881.724670,1135.433105 893.086670,1135.203613 904.397461,1134.774902 
	C930.058899,1133.802124 955.022766,1129.141479 977.759521,1116.758911 
	C989.193359,1110.531982 999.583130,1102.387817 1009.777222,1095.558105 
	C1020.479248,1102.621704 1031.385620,1110.829102 1043.206543,1117.387939 
	C1061.351807,1127.455811 1081.458130,1131.635498 1101.944336,1133.853027 
	C1126.868896,1136.550781 1151.683228,1134.873291 1176.441650,1131.636841 
	C1177.072876,1131.554321 1177.707031,1131.493652 1178.963867,1131.352783 
	C1175.085938,1146.181030 1168.228760,1158.821167 1158.208374,1170.199829 
z"/>
</svg>